<mxfile host="www.draw.io" modified="2019-12-24T08:40:10.681Z" agent="Mozilla/5.0 (Windows NT 10.0; Win64; x64) AppleWebKit/537.36 (KHTML, like Gecko) Chrome/79.0.3945.88 Safari/537.36" etag="onzJYvKIU3daDAyP31t9" version="12.4.3" type="github" pages="1">
  <diagram id="BZbkRbSNZSW36SOLxw86" name="Page-1">
    <mxGraphModel dx="971" dy="538" grid="0" gridSize="10" guides="1" tooltips="1" connect="1" arrows="1" fold="1" page="1" pageScale="1" pageWidth="1100" pageHeight="850" math="0" shadow="0">
      <root>
        <mxCell id="0"/>
        <mxCell id="1" parent="0"/>
        <mxCell id="8pI5ffe6F4eTGxbpUmkV-21" value="" style="shape=trapezoid;perimeter=trapezoidPerimeter;whiteSpace=wrap;html=1;fillColor=none;" vertex="1" parent="1">
          <mxGeometry x="183" y="421" width="310" height="130" as="geometry"/>
        </mxCell>
        <mxCell id="8pI5ffe6F4eTGxbpUmkV-15" style="edgeStyle=orthogonalEdgeStyle;rounded=0;orthogonalLoop=1;jettySize=auto;html=1;entryX=1;entryY=0.5;entryDx=0;entryDy=0;" edge="1" parent="1" source="8pI5ffe6F4eTGxbpUmkV-1" target="8pI5ffe6F4eTGxbpUmkV-13">
          <mxGeometry relative="1" as="geometry"/>
        </mxCell>
        <mxCell id="8pI5ffe6F4eTGxbpUmkV-1" value="Person who want to &lt;br&gt;find an&amp;nbsp;accommodation" style="shape=umlActor;verticalLabelPosition=bottom;labelBackgroundColor=#ffffff;verticalAlign=top;html=1;outlineConnect=0;" vertex="1" parent="1">
          <mxGeometry x="558" y="91" width="30" height="60" as="geometry"/>
        </mxCell>
        <mxCell id="8pI5ffe6F4eTGxbpUmkV-14" style="edgeStyle=orthogonalEdgeStyle;rounded=0;orthogonalLoop=1;jettySize=auto;html=1;entryX=0;entryY=0.5;entryDx=0;entryDy=0;" edge="1" parent="1" source="8pI5ffe6F4eTGxbpUmkV-11" target="8pI5ffe6F4eTGxbpUmkV-13">
          <mxGeometry relative="1" as="geometry"/>
        </mxCell>
        <mxCell id="8pI5ffe6F4eTGxbpUmkV-11" value="House owner&amp;nbsp;&lt;br&gt;has house or room for rent" style="shape=umlActor;verticalLabelPosition=bottom;labelBackgroundColor=#ffffff;verticalAlign=top;html=1;outlineConnect=0;" vertex="1" parent="1">
          <mxGeometry x="98" y="91" width="30" height="60" as="geometry"/>
        </mxCell>
        <mxCell id="8pI5ffe6F4eTGxbpUmkV-13" value="FAS" style="rounded=1;whiteSpace=wrap;html=1;" vertex="1" parent="1">
          <mxGeometry x="278" y="251" width="120" height="60" as="geometry"/>
        </mxCell>
        <mxCell id="8pI5ffe6F4eTGxbpUmkV-16" value="Register&amp;nbsp;" style="text;html=1;strokeColor=none;fillColor=none;align=center;verticalAlign=middle;whiteSpace=wrap;rounded=0;" vertex="1" parent="1">
          <mxGeometry x="208" y="251" width="60" height="30" as="geometry"/>
        </mxCell>
        <mxCell id="8pI5ffe6F4eTGxbpUmkV-17" value="Find" style="text;html=1;strokeColor=none;fillColor=none;align=center;verticalAlign=middle;whiteSpace=wrap;rounded=0;" vertex="1" parent="1">
          <mxGeometry x="408" y="251" width="60" height="30" as="geometry"/>
        </mxCell>
        <mxCell id="8pI5ffe6F4eTGxbpUmkV-18" value="Registered House Owner" style="shape=umlActor;verticalLabelPosition=bottom;labelBackgroundColor=#ffffff;verticalAlign=top;html=1;outlineConnect=0;" vertex="1" parent="1">
          <mxGeometry x="250" y="458" width="30" height="60" as="geometry"/>
        </mxCell>
        <mxCell id="8pI5ffe6F4eTGxbpUmkV-19" value="Client" style="shape=umlActor;verticalLabelPosition=bottom;labelBackgroundColor=#ffffff;verticalAlign=top;html=1;outlineConnect=0;" vertex="1" parent="1">
          <mxGeometry x="380" y="438" width="15" height="30" as="geometry"/>
        </mxCell>
        <mxCell id="8pI5ffe6F4eTGxbpUmkV-22" value="Client" style="shape=umlActor;verticalLabelPosition=bottom;labelBackgroundColor=#ffffff;verticalAlign=top;html=1;outlineConnect=0;" vertex="1" parent="1">
          <mxGeometry x="420" y="438" width="15" height="30" as="geometry"/>
        </mxCell>
        <mxCell id="8pI5ffe6F4eTGxbpUmkV-23" value="Client" style="shape=umlActor;verticalLabelPosition=bottom;labelBackgroundColor=#ffffff;verticalAlign=top;html=1;outlineConnect=0;" vertex="1" parent="1">
          <mxGeometry x="405" y="498" width="15" height="30" as="geometry"/>
        </mxCell>
        <mxCell id="8pI5ffe6F4eTGxbpUmkV-24" value="" style="endArrow=classic;html=1;exitX=0.25;exitY=1;exitDx=0;exitDy=0;entryX=0.404;entryY=0.005;entryDx=0;entryDy=0;entryPerimeter=0;" edge="1" parent="1">
          <mxGeometry width="50" height="50" relative="1" as="geometry">
            <mxPoint x="333" y="311" as="sourcePoint"/>
            <mxPoint x="333.24000000000024" y="421.85" as="targetPoint"/>
          </mxGeometry>
        </mxCell>
        <mxCell id="8pI5ffe6F4eTGxbpUmkV-25" value="" style="endArrow=classic;html=1;exitX=0.25;exitY=1;exitDx=0;exitDy=0;entryX=0.75;entryY=1;entryDx=0;entryDy=0;" edge="1" parent="1">
          <mxGeometry width="50" height="50" relative="1" as="geometry">
            <mxPoint x="343" y="421" as="sourcePoint"/>
            <mxPoint x="343" y="311" as="targetPoint"/>
          </mxGeometry>
        </mxCell>
        <mxCell id="8pI5ffe6F4eTGxbpUmkV-26" value="&lt;font style=&quot;font-size: 10px&quot;&gt;Payment&lt;/font&gt;" style="text;html=1;strokeColor=none;fillColor=none;align=center;verticalAlign=middle;whiteSpace=wrap;rounded=0;" vertex="1" parent="1">
          <mxGeometry x="358" y="321" width="40" height="20" as="geometry"/>
        </mxCell>
        <mxCell id="8pI5ffe6F4eTGxbpUmkV-27" value="&lt;font style=&quot;font-size: 10px&quot;&gt;Cost&lt;/font&gt;" style="text;html=1;strokeColor=none;fillColor=none;align=left;verticalAlign=middle;whiteSpace=wrap;rounded=0;" vertex="1" parent="1">
          <mxGeometry x="358" y="341" width="40" height="20" as="geometry"/>
        </mxCell>
        <mxCell id="8pI5ffe6F4eTGxbpUmkV-28" value="&lt;font style=&quot;font-size: 10px&quot;&gt;Rating&lt;/font&gt;" style="text;html=1;strokeColor=none;fillColor=none;align=left;verticalAlign=middle;whiteSpace=wrap;rounded=0;" vertex="1" parent="1">
          <mxGeometry x="358" y="361" width="40" height="20" as="geometry"/>
        </mxCell>
        <mxCell id="8pI5ffe6F4eTGxbpUmkV-29" value="&lt;font style=&quot;font-size: 10px&quot;&gt;Support Centre&lt;/font&gt;" style="text;html=1;strokeColor=none;fillColor=none;align=right;verticalAlign=middle;whiteSpace=wrap;rounded=0;" vertex="1" parent="1">
          <mxGeometry x="248" y="321" width="75" height="20" as="geometry"/>
        </mxCell>
        <mxCell id="8pI5ffe6F4eTGxbpUmkV-30" value="&lt;font style=&quot;font-size: 10px&quot;&gt;Legal assist&lt;/font&gt;" style="text;html=1;strokeColor=none;fillColor=none;align=right;verticalAlign=middle;whiteSpace=wrap;rounded=0;" vertex="1" parent="1">
          <mxGeometry x="258" y="341" width="65" height="20" as="geometry"/>
        </mxCell>
      </root>
    </mxGraphModel>
  </diagram>
</mxfile>
